<svg width="38" height="38" viewBox="0 0 38 38" fill="none" xmlns="http://www.w3.org/2000/svg">
<path fill-rule="evenodd" clip-rule="evenodd" d="M34.7867 4.93282L37.3607 5.25775L36.2037 7.76422C35.6394 8.98652 35.0746 10.2088 34.5093 11.4311C34.4422 11.69 34.3244 11.917 34.1501 12.2125C34.0773 12.3359 33.8286 12.7287 33.8169 12.7475C33.7513 12.854 33.7027 12.938 33.6677 13.0052V17.7026C33.6677 29.7225 22.9058 37.3607 12.7425 37.3607C10.6628 37.3607 9.08273 37.253 7.27345 36.8263C4.29595 36.124 2.08011 34.7279 1.06614 32.288L0.0222165 29.776L2.5592 29.5238C4.85426 29.2956 6.84414 28.823 8.37228 28.1902C4.177 27.4609 1.82598 25.4693 1.82598 21.729V19.7623H3.64542C4.04517 19.7623 4.40562 19.7273 4.72788 19.6629C1.57927 17.6281 0.00222281 14.3638 0.00222281 9.8361C0.00187877 9.64312 0.00187886 9.64312 0.000805193 9.43678C-0.0110232 7.15462 0.102383 5.9352 0.680373 4.37886C1.0508 3.38143 1.58624 2.45805 2.30686 1.61198L3.67982 0L5.01468 1.64895C9.41364 7.083 13.7621 10.3797 18.2019 10.7785C18.2209 5.76426 21.7268 1.96961 26.3897 1.96961C28.5634 1.96961 30.5352 2.86146 32.0848 4.46959C32.9329 4.65796 33.8336 4.8125 34.7867 4.93282ZM30.7641 8.18511L30.2064 8.04859L29.8212 7.5917C28.8898 6.48699 27.7208 5.90286 26.3897 5.90286C23.7279 5.90286 21.8407 7.95283 21.8407 10.8194C21.8407 11.2879 21.8295 11.5823 21.7755 11.9691C21.5601 13.513 20.7589 14.7527 19.1115 14.7527C13.6568 14.7527 8.73575 11.5941 3.93706 6.19934C3.68967 7.0122 3.63149 7.84775 3.63961 9.41474C3.64071 9.62432 3.64071 9.62432 3.64109 9.8361C3.64109 13.8638 5.1507 16.0668 8.72503 17.2948L9.99334 17.7306V19.1691C9.99334 20.9134 8.4644 22.5555 6.22734 23.291C7.25283 24.1319 9.35007 24.5858 12.7431 24.5858H14.5626V26.5524C14.5626 29.37 11.5673 31.5762 7.04257 32.7282C8.51819 33.2169 10.4829 33.4275 12.7425 33.4275C21.1381 33.4275 30.0289 27.1174 30.0289 17.7026V12.786C30.0289 12.2083 30.1838 11.7068 30.4412 11.1853C30.5419 10.9815 30.6527 10.7871 30.7894 10.5654C30.8152 10.5237 30.9107 10.3725 30.9865 10.2516L31.1307 9.93987C31.3644 9.43476 31.598 8.92966 31.8314 8.42455C31.4686 8.35026 31.1128 8.27045 30.7641 8.18511Z" fill="black"/>
</svg>
