<svg width="38" height="38" viewBox="0 0 38 38" fill="none" xmlns="http://www.w3.org/2000/svg">
<path fill-rule="evenodd" clip-rule="evenodd" d="M16.7697 7.94823C17.864 9.16145 17.517 10.5359 16.5494 11.8401C16.32 12.1493 16.0556 12.4539 15.7362 12.7896C15.5829 12.9507 15.4634 13.0719 15.2134 13.3222C14.6455 13.8907 14.1682 14.3684 13.7814 14.7552C13.5938 14.9429 14.8746 17.5027 17.3603 19.9912C19.8447 22.4784 22.4041 23.7603 22.5926 23.5717L24.0236 22.1397C24.8116 21.3507 25.229 20.9701 25.8024 20.5938C26.9946 19.8115 28.295 19.599 29.3918 20.5798C32.9726 23.1416 34.999 24.7136 35.9918 25.7453C37.9281 27.7575 37.6743 30.8549 36.0028 32.6219C35.4231 33.2346 34.6882 33.9701 33.8201 34.807C28.5693 40.0614 17.4877 36.8638 8.99481 28.3614C0.500008 19.857 -2.69549 8.7728 2.54431 3.52946C3.485 2.57385 3.79516 2.26381 4.71131 1.36096C6.41703 -0.319979 9.65686 -0.583178 11.6263 1.36262C12.6623 2.38612 14.3139 4.51143 16.7697 7.94823ZM26.6636 24.7809L25.2323 26.2132C22.7993 28.6478 18.656 26.5726 14.7201 22.6322C10.7814 18.6891 8.70874 14.5468 11.1425 12.1129C11.5288 11.7265 12.0057 11.2493 12.5731 10.6813C12.802 10.4521 12.9067 10.3459 13.0324 10.2138C13.2037 10.0338 13.3444 9.8757 13.4571 9.7358C11.2806 6.70364 9.80115 4.80899 9.00356 4.02099C8.59166 3.61404 7.66933 3.68897 7.33072 4.02265C6.42765 4.91261 6.13081 5.20934 5.19391 6.16102C1.8242 9.53306 4.40383 18.481 11.6351 25.7204C18.8641 32.9575 27.8095 35.5388 31.2048 32.1415C32.0594 31.3171 32.7557 30.6203 33.2917 30.0537C33.679 29.6443 33.7482 28.7995 33.3027 28.3365C32.5607 27.5654 30.7439 26.1487 27.607 23.8957C27.3784 24.0798 27.0973 24.3467 26.6636 24.7809ZM33.6256 6.37892L23.7406 16.2652L21.0995 13.6237L30.9844 3.73739H24.2876V0.00168926H37.3607V13.0766H33.6256V6.37892Z" fill="black"/>
</svg>
