<svg width="38" height="38" viewBox="0 0 38 38" fill="none" xmlns="http://www.w3.org/2000/svg">
<path fill-rule="evenodd" clip-rule="evenodd" d="M3.73607 0H33.6247C35.6881 0 37.3607 1.6727 37.3607 3.73607V33.6247C37.3607 35.6881 35.6881 37.3607 33.6247 37.3607H3.73607C1.6727 37.3607 0 35.6881 0 33.6247V3.73607C0 1.6727 1.6727 0 3.73607 0ZM3.73607 3.73607V33.6247H33.6247V3.73607H3.73607ZM20.5484 18.6886H17.0609V14.9525H20.5484V13.0763C20.5484 9.9812 23.0575 7.47215 26.1525 7.47215H28.0206V11.2082H26.1525C25.1208 11.2082 24.2845 12.0446 24.2845 13.0763V14.9525H27.9877V18.6886H24.2845V29.8886H20.5484V18.6886Z" fill="black"/>
</svg>
