<svg xmlns="http://www.w3.org/2000/svg" xmlns:xlink="http://www.w3.org/1999/xlink" version="1.1" width="1000" height="1000" viewBox="0 0 1000 1000" xml:space="preserve">
<desc>Created with Fabric.js 3.5.0</desc>
<defs>
</defs>
<rect x="0" y="0" width="100%" height="100%" fill="#ffffff"/>
<g transform="matrix(0.7318 0 0 0.7318 314.3354 279.9174)" id="838757">
<path style="stroke: none; stroke-width: 1; stroke-dasharray: none; stroke-linecap: butt; stroke-dashoffset: 0; stroke-linejoin: miter; stroke-miterlimit: 4; is-custom-font: none; font-file-url: none; fill: rgb(0,0,0); fill-rule: nonzero; opacity: 1;" vector-effect="non-scaling-stroke" transform=" translate(-245.8554, -245.8549)" d="M 446.601 236.41 c -16.945 -26.313 -48.371 -75.063 -48.371 -75.063 C 381.058 85.73 336.949 32 283.187 10.902 c -35.742 -14.024 -97.551 -14.33 -135.656 -2.004 C 55.789 38.556 17.508 136.742 49.676 236.234 c 8.703 26.922 22.543 50.559 39.73 70.344 L 57.512 452.937 c -2.063 9.453 0.273 19.328 6.34 26.859 c 6.066 7.539 15.223 11.914 24.894 11.914 h 109.426 c 16.316 0 30.012 -12.285 31.781 -28.508 l 7.273 -66.805 c 7.387 1.566 14.887 2.621 22.578 2.621 c 64.949 0 119.934 -41.508 138.297 -121.383 l 34.035 1.418 c 9.254 -1.617 16.863 -8.152 19.871 -17.035 C 455.035 253.136 452.332 245.308 446.601 236.41 z M 222.148 322.922 c -19.422 0 -32.602 -14.289 -32.602 -33.336 c 0 -19.414 13.535 -33.336 32.602 -33.336 c 19.762 0 32.605 13.922 32.957 33.336 C 255.105 308.633 241.91 322.922 222.148 322.922 z M 266.469 186.652 c -13.566 15.016 -19.055 29.305 -18.699 45.781 c 0 3.652 -2.945 6.598 -6.582 6.598 h -35.789 c -3.543 0 -6.438 -2.797 -6.582 -6.332 l -0.113 -3.184 c -1.109 -18.691 5.102 -37.738 21.598 -57.523 c 11.715 -13.918 21.223 -25.641 21.223 -38.09 c 0 -12.824 -8.398 -21.258 -26.711 -21.983 c -5.586 0 -11.715 0.934 -17.637 2.592 c -10.879 3.049 -22.223 -3.105 -25.586 -13.912 c -3.383 -10.83 2.539 -22.344 13.305 -25.924 c 11.844 -3.936 26.328 -6.711 42.355 -6.711 c 48.375 0 70.324 26.738 70.324 57.137 C 297.574 152.949 280.371 171.261 266.469 186.652 z" stroke-linecap="round"/>
</g>
<g transform="matrix(0.5337 0 0 0.5337 347.0531 699.5711)" id="130950">
<g style="" vector-effect="non-scaling-stroke">
		<g transform="matrix(12.5 0 0 12.5 325 -200)" id="_15_Knowleade">
<rect style="stroke: none; stroke-width: 1; stroke-dasharray: none; stroke-linecap: butt; stroke-dashoffset: 0; stroke-linejoin: miter; stroke-miterlimit: 4; is-custom-font: none; font-file-url: none; fill: rgb(4,85,191); fill-rule: nonzero; opacity: 1;" x="-1" y="-7" rx="0" ry="0" width="2" height="14"/>
</g>
		<g transform="matrix(12.5 0 0 12.5 318.75 -200)" id="_15_Knowleade">
<rect style="stroke: none; stroke-width: 1; stroke-dasharray: none; stroke-linecap: butt; stroke-dashoffset: 0; stroke-linejoin: miter; stroke-miterlimit: 4; is-custom-font: none; font-file-url: none; fill: rgb(0,71,135); fill-rule: nonzero; opacity: 1;" x="-0.5" y="-7" rx="0" ry="0" width="1" height="14"/>
</g>
		<g transform="matrix(12.5 0 0 12.5 325 -25)" id="_15_Knowleade">
<path style="stroke: none; stroke-width: 1; stroke-dasharray: none; stroke-linecap: butt; stroke-dashoffset: 0; stroke-linejoin: miter; stroke-miterlimit: 4; is-custom-font: none; font-file-url: none; fill: rgb(247,78,12); fill-rule: nonzero; opacity: 1;" transform=" translate(-58, -30)" d="M 61 37 H 55 a 1 1 0 0 1 -1 -1 V 24 a 1 1 0 0 1 1 -1 h 6 a 1 1 0 0 1 1 1 V 36 A 1 1 0 0 1 61 37 Z" stroke-linecap="round"/>
</g>
		<g transform="matrix(12.5 0 0 12.5 325 -25)" id="_15_Knowleade">
<path style="stroke: none; stroke-width: 1; stroke-dasharray: none; stroke-linecap: butt; stroke-dashoffset: 0; stroke-linejoin: miter; stroke-miterlimit: 4; is-custom-font: none; font-file-url: none; fill: rgb(204,38,0); fill-rule: nonzero; opacity: 1;" transform=" translate(-58, -30)" d="M 62 35 a 6 6 0 0 1 -6 -6 V 23 H 55 a 1 1 0 0 0 -1 1 V 36 a 1 1 0 0 0 1 1 h 6 a 1 1 0 0 0 1 -1 V 35 Z" stroke-linecap="round"/>
</g>
		<g transform="matrix(12.5 0 0 12.5 25 -175)" id="_15_Knowleade">
<path style="stroke: none; stroke-width: 1; stroke-dasharray: none; stroke-linecap: butt; stroke-dashoffset: 0; stroke-linejoin: miter; stroke-miterlimit: 4; is-custom-font: none; font-file-url: none; fill: rgb(4,85,191); fill-rule: nonzero; opacity: 1;" transform=" translate(-34, -18)" d="M 51 28 H 17 a 1 1 0 0 1 -1 -1 V 9 a 1 1 0 0 1 1 -1 H 51 a 1 1 0 0 1 1 1 V 27 A 1 1 0 0 1 51 28 Z" stroke-linecap="round"/>
</g>
		<g transform="matrix(12.5 0 0 12.5 25 -175)" id="_15_Knowleade">
<path style="stroke: none; stroke-width: 1; stroke-dasharray: none; stroke-linecap: butt; stroke-dashoffset: 0; stroke-linejoin: miter; stroke-miterlimit: 4; is-custom-font: none; font-file-url: none; fill: rgb(0,71,135); fill-rule: nonzero; opacity: 1;" transform=" translate(-34, -18)" d="M 36 26 A 18 18 0 0 1 18 8 H 17 a 1 1 0 0 0 -1 1 V 27 a 1 1 0 0 0 1 1 H 51 a 1 1 0 0 0 1 -1 V 26 Z" stroke-linecap="round"/>
</g>
		<g transform="matrix(12.5 0 0 12.5 25 -312.5)" id="_15_Knowleade">
<path style="stroke: none; stroke-width: 1; stroke-dasharray: none; stroke-linecap: butt; stroke-dashoffset: 0; stroke-linejoin: miter; stroke-miterlimit: 4; is-custom-font: none; font-file-url: none; fill: rgb(4,85,191); fill-rule: nonzero; opacity: 1;" transform=" translate(-34, -7)" d="M 60 10 H 8 A 1 1 0 0 1 7 9 V 5 A 1 1 0 0 1 8 4 H 60 a 1 1 0 0 1 1 1 V 9 A 1 1 0 0 1 60 10 Z" stroke-linecap="round"/>
</g>
		<g transform="matrix(12.5 0 0 12.5 25 -312.5)" id="_15_Knowleade">
<path style="stroke: none; stroke-width: 1; stroke-dasharray: none; stroke-linecap: butt; stroke-dashoffset: 0; stroke-linejoin: miter; stroke-miterlimit: 4; is-custom-font: none; font-file-url: none; fill: rgb(0,71,135); fill-rule: nonzero; opacity: 1;" transform=" translate(-34, -7)" d="M 10 8 A 1 1 0 0 1 9 7 V 4 H 8 A 1 1 0 0 0 7 5 V 9 a 1 1 0 0 0 1 1 H 60 a 1 1 0 0 0 1 -1 V 8 Z" stroke-linecap="round"/>
</g>
		<g transform="matrix(12.5 0 0 12.5 6.2204 224.9979)" id="_15_Knowleade">
<path style="stroke: none; stroke-width: 1; stroke-dasharray: none; stroke-linecap: butt; stroke-dashoffset: 0; stroke-linejoin: miter; stroke-miterlimit: 4; is-custom-font: none; font-file-url: none; fill: rgb(253,254,255); fill-rule: nonzero; opacity: 1;" transform=" translate(-32.4976, -49.9998)" d="M 58 56 H 12 a 6.013 6.013 0 0 1 -5.976 -6.6 a 6.185 6.185 0 0 1 6.2 -5.4 H 58 a 1 1 0 0 1 1 1 V 55 A 1 1 0 0 1 58 56 Z" stroke-linecap="round"/>
</g>
		<g transform="matrix(12.5 0 0 12.5 -74.9911 25.0043)" id="_15_Knowleade">
<path style="stroke: none; stroke-width: 1; stroke-dasharray: none; stroke-linecap: butt; stroke-dashoffset: 0; stroke-linejoin: miter; stroke-miterlimit: 4; is-custom-font: none; font-file-url: none; fill: rgb(253,254,255); fill-rule: nonzero; opacity: 1;" transform=" translate(-26.0007, -34.0003)" d="M 42.88 38 H 6 a 1 1 0 0 1 -1 -1 V 31 a 1 1 0 0 1 1 -1 H 43 a 4 4 0 0 1 3.923 4.788 A 4.058 4.058 0 0 1 42.88 38 Z" stroke-linecap="round"/>
</g>
		<g transform="matrix(12.5 0 0 12.5 -0.031 225.006)" id="_15_Knowleade">
<path style="stroke: none; stroke-width: 1; stroke-dasharray: none; stroke-linecap: butt; stroke-dashoffset: 0; stroke-linejoin: miter; stroke-miterlimit: 4; is-custom-font: none; font-file-url: none; fill: rgb(254,188,0); fill-rule: nonzero; opacity: 1;" transform=" translate(-31.9975, -50.0005)" d="M 59 60 H 12.32 a 10.2 10.2 0 0 1 -10.3 -9.313 A 9.927 9.927 0 0 1 4.7 43.173 A 10.035 10.035 0 0 1 12 40 H 59 a 3 3 0 0 1 3 3 a 3.017 3.017 0 0 1 -3 3 H 12.22 a 4.166 4.166 0 0 0 -4.2 3.6 a 3.969 3.969 0 0 0 1.02 3.083 A 4.015 4.015 0 0 0 12 54 H 59 a 3 3 0 0 1 3 3 a 3.017 3.017 0 0 1 -3 3 Z" stroke-linecap="round"/>
</g>
		<g transform="matrix(12.5 0 0 12.5 -0.9175 237.731)" id="_15_Knowleade">
<path style="stroke: none; stroke-width: 1; stroke-dasharray: none; stroke-linecap: butt; stroke-dashoffset: 0; stroke-linejoin: miter; stroke-miterlimit: 4; is-custom-font: none; font-file-url: none; fill: rgb(237,170,3); fill-rule: nonzero; opacity: 1;" transform=" translate(-31.9266, -51.0185)" d="M 61 58 H 14.32 a 10.2 10.2 0 0 1 -10.3 -9.313 a 9.91 9.91 0 0 1 1.96 -6.651 a 9.87 9.87 0 0 0 -3.96 8.651 A 10.2 10.2 0 0 0 12.32 60 H 59 a 2.987 2.987 0 0 0 2.86 -2.139 A 3 3 0 0 1 61 58 Z" stroke-linecap="round"/>
</g>
		<g transform="matrix(12.5 0 0 12.5 -62.4962 25.0057)" id="_15_Knowleade">
<path style="stroke: none; stroke-width: 1; stroke-dasharray: none; stroke-linecap: butt; stroke-dashoffset: 0; stroke-linejoin: miter; stroke-miterlimit: 4; is-custom-font: none; font-file-url: none; fill: rgb(247,78,12); fill-rule: nonzero; opacity: 1;" transform=" translate(-27.0003, -34.0005)" d="M 42.76 42 H 6 a 3 3 0 0 1 -3 -3 a 3.017 3.017 0 0 1 3 -3 H 42.88 a 2.082 2.082 0 0 0 2.078 -1.587 A 2 2 0 0 0 43 32 H 6 a 3 3 0 0 1 -3 -3 a 3.017 3.017 0 0 1 3 -3 H 43 a 8.008 8.008 0 0 1 7.933 9.046 h 0 A 8.139 8.139 0 0 1 42.76 42 Z" stroke-linecap="round"/>
</g>
		<g transform="matrix(12.5 0 0 12.5 -61.6199 34.0682)" id="_15_Knowleade">
<path style="stroke: none; stroke-width: 1; stroke-dasharray: none; stroke-linecap: butt; stroke-dashoffset: 0; stroke-linejoin: miter; stroke-miterlimit: 4; is-custom-font: none; font-file-url: none; fill: rgb(204,38,0); fill-rule: nonzero; opacity: 1;" transform=" translate(-27.0704, -34.7255)" d="M 49.009 28.723 a 7.979 7.979 0 0 0 -1.436 -1.273 a 8.033 8.033 0 0 1 1.36 5.6 A 8.139 8.139 0 0 1 40.76 40 H 4 a 2.943 2.943 0 0 1 -0.859 -0.141 A 2.993 2.993 0 0 0 6 42 H 42.76 a 8.139 8.139 0 0 0 8.173 -6.954 A 8.024 8.024 0 0 0 49.009 28.723 Z" stroke-linecap="round"/>
</g>
		<g transform="matrix(12.5 0 0 12.5 56.25 25)" id="_15_Knowleade">
<rect style="stroke: none; stroke-width: 1; stroke-dasharray: none; stroke-linecap: butt; stroke-dashoffset: 0; stroke-linejoin: miter; stroke-miterlimit: 4; is-custom-font: none; font-file-url: none; fill: rgb(223,234,239); fill-rule: nonzero; opacity: 1;" x="-5.5" y="-1" rx="0" ry="0" width="11" height="2"/>
</g>
		<g transform="matrix(12.5 0 0 12.5 212.5 225)" id="_15_Knowleade">
<rect style="stroke: none; stroke-width: 1; stroke-dasharray: none; stroke-linecap: butt; stroke-dashoffset: 0; stroke-linejoin: miter; stroke-miterlimit: 4; is-custom-font: none; font-file-url: none; fill: rgb(223,234,239); fill-rule: nonzero; opacity: 1;" x="-10" y="-1" rx="0" ry="0" width="20" height="2"/>
</g>
		<g transform="matrix(12.5 0 0 12.5 50 225)" id="_15_Knowleade">
<rect style="stroke: none; stroke-width: 1; stroke-dasharray: none; stroke-linecap: butt; stroke-dashoffset: 0; stroke-linejoin: miter; stroke-miterlimit: 4; is-custom-font: none; font-file-url: none; fill: rgb(223,234,239); fill-rule: nonzero; opacity: 1;" x="-1" y="-1" rx="0" ry="0" width="2" height="2"/>
</g>
		<g transform="matrix(12.5 0 0 12.5 -50 25)" id="_15_Knowleade">
<rect style="stroke: none; stroke-width: 1; stroke-dasharray: none; stroke-linecap: butt; stroke-dashoffset: 0; stroke-linejoin: miter; stroke-miterlimit: 4; is-custom-font: none; font-file-url: none; fill: rgb(223,234,239); fill-rule: nonzero; opacity: 1;" x="-1" y="-1" rx="0" ry="0" width="2" height="2"/>
</g>
</g>
</g>
<g transform="matrix(0.3441 0 0 0.8972 762.3402 458.88)" id="347303">
<g style="" vector-effect="non-scaling-stroke">
		<g transform="matrix(16.6667 0 0 16.6667 -83.333 -183.333)">
<path style="stroke: rgb(0,0,0); stroke-width: 4; stroke-dasharray: none; stroke-linecap: round; stroke-dashoffset: 0; stroke-linejoin: round; stroke-miterlimit: 4; is-custom-font: none; font-file-url: none; fill: rgb(47,136,255); fill-rule: nonzero; opacity: 1;" transform=" translate(-19, -13)" d="M 19 20 C 22.866 20 26 16.866 26 13 C 26 9.13401 22.866 6 19 6 C 15.134 6 12 9.13401 12 13 C 12 16.866 15.134 20 19 20 Z" stroke-linecap="round"/>
</g>
		<g transform="matrix(16.6667 0 0 16.6667 233.3336 -33.3333)">
<path style="stroke: none; stroke-width: 1; stroke-dasharray: none; stroke-linecap: butt; stroke-dashoffset: 0; stroke-linejoin: miter; stroke-miterlimit: 4; is-custom-font: none; font-file-url: none; fill: rgb(47,136,255); fill-rule: evenodd; opacity: 1;" transform=" translate(-38, -22)" d="M 32 22 H 44 Z" stroke-linecap="round"/>
</g>
		<g transform="matrix(16.6667 0 0 16.6667 233.3336 -33.3333)">
<path style="stroke: rgb(0,0,0); stroke-width: 4; stroke-dasharray: none; stroke-linecap: round; stroke-dashoffset: 0; stroke-linejoin: round; stroke-miterlimit: 4; is-custom-font: none; font-file-url: none; fill: none; fill-rule: nonzero; opacity: 1;" transform=" translate(-38, -22)" d="M 32 22 H 44" stroke-linecap="round"/>
</g>
		<g transform="matrix(16.6667 0 0 16.6667 233.3336 -133.3333)">
<path style="stroke: none; stroke-width: 1; stroke-dasharray: none; stroke-linecap: butt; stroke-dashoffset: 0; stroke-linejoin: miter; stroke-miterlimit: 4; is-custom-font: none; font-file-url: none; fill: rgb(47,136,255); fill-rule: evenodd; opacity: 1;" transform=" translate(-38, -16)" d="M 32 16 H 44 Z" stroke-linecap="round"/>
</g>
		<g transform="matrix(16.6667 0 0 16.6667 233.3336 -133.3333)">
<path style="stroke: rgb(0,0,0); stroke-width: 4; stroke-dasharray: none; stroke-linecap: round; stroke-dashoffset: 0; stroke-linejoin: round; stroke-miterlimit: 4; is-custom-font: none; font-file-url: none; fill: none; fill-rule: nonzero; opacity: 1;" transform=" translate(-38, -16)" d="M 32 16 H 44" stroke-linecap="round"/>
</g>
		<g transform="matrix(16.6667 0 0 16.6667 183.3333 -83.3332)">
<path style="stroke: none; stroke-width: 1; stroke-dasharray: none; stroke-linecap: butt; stroke-dashoffset: 0; stroke-linejoin: miter; stroke-miterlimit: 4; is-custom-font: none; font-file-url: none; fill: rgb(47,136,255); fill-rule: evenodd; opacity: 1;" transform=" translate(-35, -19)" d="M 35 13 V 25 Z" stroke-linecap="round"/>
</g>
		<g transform="matrix(16.6667 0 0 16.6667 183.3334 -83.3331)">
<path style="stroke: rgb(0,0,0); stroke-width: 4; stroke-dasharray: none; stroke-linecap: round; stroke-dashoffset: 0; stroke-linejoin: round; stroke-miterlimit: 4; is-custom-font: none; font-file-url: none; fill: none; fill-rule: nonzero; opacity: 1;" transform=" translate(-35, -19)" d="M 35 13 V 25" stroke-linecap="round"/>
</g>
		<g transform="matrix(16.6667 0 0 16.6667 283.3333 -83.3332)">
<path style="stroke: none; stroke-width: 1; stroke-dasharray: none; stroke-linecap: butt; stroke-dashoffset: 0; stroke-linejoin: miter; stroke-miterlimit: 4; is-custom-font: none; font-file-url: none; fill: rgb(47,136,255); fill-rule: evenodd; opacity: 1;" transform=" translate(-41, -19)" d="M 41 13 V 25 Z" stroke-linecap="round"/>
</g>
		<g transform="matrix(16.6667 0 0 16.6667 283.3334 -83.3331)">
<path style="stroke: rgb(0,0,0); stroke-width: 4; stroke-dasharray: none; stroke-linecap: round; stroke-dashoffset: 0; stroke-linejoin: round; stroke-miterlimit: 4; is-custom-font: none; font-file-url: none; fill: none; fill-rule: nonzero; opacity: 1;" transform=" translate(-41, -19)" d="M 41 13 V 25" stroke-linecap="round"/>
</g>
		<g transform="matrix(16.6667 0 0 16.6667 -83.3328 183.3336)">
<path style="stroke: rgb(0,0,0); stroke-width: 4; stroke-dasharray: none; stroke-linecap: round; stroke-dashoffset: 0; stroke-linejoin: round; stroke-miterlimit: 4; is-custom-font: none; font-file-url: none; fill: rgb(47,136,255); fill-rule: nonzero; opacity: 1;" transform=" translate(-19, -35)" d="M 4 40.8 V 42 H 34 V 40.8 C 34 36.3196 34 34.0794 33.1281 32.3681 C 32.3611 30.8628 31.1372 29.6389 29.6319 28.8719 C 27.9206 28 25.6804 28 21.2 28 H 16.8 C 12.3196 28 10.0794 28 8.36808 28.8719 C 6.86278 29.6389 5.63893 30.8628 4.87195 32.3681 C 4 34.0794 4 36.3196 4 40.8 Z" stroke-linecap="round"/>
</g>
</g>
</g>
</svg>