<svg xmlns="http://www.w3.org/2000/svg" xmlns:xlink="http://www.w3.org/1999/xlink" version="1.1" width="1000" height="1000" viewBox="0 0 1000 1000" xml:space="preserve">
<desc>Created with Fabric.js 3.5.0</desc>
<defs>
</defs>
<rect x="0" y="0" width="100%" height="100%" fill="#ffffff"/>
<g transform="matrix(10.0477 0 0 7.7908 579.8597 652.0834)" id="630848">
<g style="" vector-effect="non-scaling-stroke">
		<g transform="matrix(1 0 0 1 -3.5 3.5)" id="_10">
<path style="stroke: none; stroke-width: 1; stroke-dasharray: none; stroke-linecap: butt; stroke-dashoffset: 0; stroke-linejoin: miter; stroke-miterlimit: 4; is-custom-font: none; font-file-url: none; fill: rgb(0,109,240); fill-rule: nonzero; opacity: 1;" transform=" translate(-28.5, -35.5)" d="M 51.5 27.5 a 1 1 0 0 0 -1 1 v 14 H 6.5 v -24 h 34 a 1 1 0 0 0 0 -2 H 5.5 a 1 1 0 0 0 -1 1 v 31 a 1 1 0 0 0 1 1 H 22.42 l -2.4 3 H 15.5 a 1 1 0 0 0 0 2 h 26 a 1 1 0 0 0 0 -2 H 36.98 l -2.4 -3 H 51.5 a 1 1 0 0 0 1 -1 v -20 A 1 1 0 0 0 51.5 27.5 Z m -17.08 25 H 22.58 l 2.4 -3 h 7.04 Z m 16.08 -5 H 6.5 v -3 h 44 Z" stroke-linecap="round"/>
</g>
		<g transform="matrix(1 0 0 1 19.5 -14.5013)" id="_10">
<path style="stroke: none; stroke-width: 1; stroke-dasharray: none; stroke-linecap: butt; stroke-dashoffset: 0; stroke-linejoin: miter; stroke-miterlimit: 4; is-custom-font: none; font-file-url: none; fill: rgb(0,109,240); fill-rule: nonzero; opacity: 1;" transform=" translate(-51.5, -17.4987)" d="M 59.47 12.6 a 0.826 0.826 0 0 0 -0.08 -0.22 a 0.965 0.965 0 0 0 -0.31 -0.36 a 0.913 0.913 0 0 0 -0.13 -0.08 a 0.471 0.471 0 0 0 -0.15 -0.06 L 51.82 9.55 a 1 1 0 0 0 -0.64 0 L 44.2 11.88 a 0.471 0.471 0 0 0 -0.15 0.06 a 0.913 0.913 0 0 0 -0.13 0.08 a 0.965 0.965 0 0 0 -0.31 0.36 a 0.826 0.826 0 0 0 -0.08 0.22 a 0.852 0.852 0 0 0 -0.03 0.23 v 9.34 a 1.014 1.014 0 0 0 0.68 0.95 l 7 2.33 l 0.12 0.03 a 1.01 1.01 0 0 0 0.4 0 l 0.12 -0.03 l 7 -2.33 a 1.014 1.014 0 0 0 0.68 -0.95 V 12.83 A 0.852 0.852 0 0 0 59.47 12.6 Z M 51.5 11.55 l 3.84 1.28 L 51.5 14.11 l -3.84 -1.28 Z m -6 2.67 l 5 1.67 v 7.23 l -5 -1.67 Z m 12 7.23 l -5 1.67 V 15.89 l 5 -1.67 Z" stroke-linecap="round"/>
</g>
		<g transform="matrix(1 0 0 1 9.5175 -19)" id="_10">
<path style="stroke: none; stroke-width: 1; stroke-dasharray: none; stroke-linecap: butt; stroke-dashoffset: 0; stroke-linejoin: miter; stroke-miterlimit: 4; is-custom-font: none; font-file-url: none; fill: rgb(0,109,240); fill-rule: nonzero; opacity: 1;" transform=" translate(-41.5175, -13)" d="M 41.52 14 a 1 1 0 0 1 -0.01 -2 h 0.01 a 1 1 0 0 1 0 2 Z" stroke-linecap="round"/>
</g>
		<g transform="matrix(1 0 0 1 6.5175 -19)" id="_10">
<path style="stroke: none; stroke-width: 1; stroke-dasharray: none; stroke-linecap: butt; stroke-dashoffset: 0; stroke-linejoin: miter; stroke-miterlimit: 4; is-custom-font: none; font-file-url: none; fill: rgb(0,109,240); fill-rule: nonzero; opacity: 1;" transform=" translate(-38.5175, -13)" d="M 38.52 14 a 1 1 0 0 1 -0.01 -2 h 0.01 a 1 1 0 0 1 0 2 Z" stroke-linecap="round"/>
</g>
		<g transform="matrix(1 0 0 1 3.5175 -19)" id="_10">
<path style="stroke: none; stroke-width: 1; stroke-dasharray: none; stroke-linecap: butt; stroke-dashoffset: 0; stroke-linejoin: miter; stroke-miterlimit: 4; is-custom-font: none; font-file-url: none; fill: rgb(0,109,240); fill-rule: nonzero; opacity: 1;" transform=" translate(-35.5175, -13)" d="M 35.52 14 a 1 1 0 0 1 -0.01 -2 h 0.01 a 1 1 0 0 1 0 2 Z" stroke-linecap="round"/>
</g>
		<g transform="matrix(1 0 0 1 26.5175 -1)" id="_10">
<path style="stroke: none; stroke-width: 1; stroke-dasharray: none; stroke-linecap: butt; stroke-dashoffset: 0; stroke-linejoin: miter; stroke-miterlimit: 4; is-custom-font: none; font-file-url: none; fill: rgb(0,109,240); fill-rule: nonzero; opacity: 1;" transform=" translate(-58.5175, -31)" d="M 58.52 32 a 1 1 0 0 1 -0.01 -2 h 0.01 a 1 1 0 1 1 0 2 Z" stroke-linecap="round"/>
</g>
		<g transform="matrix(1 0 0 1 26.5175 -4)" id="_10">
<path style="stroke: none; stroke-width: 1; stroke-dasharray: none; stroke-linecap: butt; stroke-dashoffset: 0; stroke-linejoin: miter; stroke-miterlimit: 4; is-custom-font: none; font-file-url: none; fill: rgb(0,109,240); fill-rule: nonzero; opacity: 1;" transform=" translate(-58.5175, -28)" d="M 58.52 29 a 1 1 0 0 1 -0.01 -2 h 0.01 a 1 1 0 1 1 0 2 Z" stroke-linecap="round"/>
</g>
		<g transform="matrix(1 0 0 1 26.5175 -7)" id="_10">
<path style="stroke: none; stroke-width: 1; stroke-dasharray: none; stroke-linecap: butt; stroke-dashoffset: 0; stroke-linejoin: miter; stroke-miterlimit: 4; is-custom-font: none; font-file-url: none; fill: rgb(0,109,240); fill-rule: nonzero; opacity: 1;" transform=" translate(-58.5175, -25)" d="M 58.52 26 a 1 1 0 0 1 -0.01 -2 h 0.01 a 1 1 0 1 1 0 2 Z" stroke-linecap="round"/>
</g>
		<g transform="matrix(1 0 0 1 -3.5 -1.5)" id="_10">
<path style="stroke: none; stroke-width: 1; stroke-dasharray: none; stroke-linecap: butt; stroke-dashoffset: 0; stroke-linejoin: miter; stroke-miterlimit: 4; is-custom-font: none; font-file-url: none; fill: rgb(0,109,240); fill-rule: nonzero; opacity: 1;" transform=" translate(-28.5, -30.5)" d="M 28.5 40.5 a 1 1 0 0 1 -1 -1 v -18 a 1 1 0 0 1 2 0 v 18 A 1 1 0 0 1 28.5 40.5 Z" stroke-linecap="round"/>
</g>
		<g transform="matrix(1 0 0 1 2.75 -1.4938)" id="_10">
<path style="stroke: none; stroke-width: 1; stroke-dasharray: none; stroke-linecap: butt; stroke-dashoffset: 0; stroke-linejoin: miter; stroke-miterlimit: 4; is-custom-font: none; font-file-url: none; fill: rgb(0,109,240); fill-rule: nonzero; opacity: 1;" transform=" translate(-34.75, -30.5061)" d="M 36 34 a 1 1 0 0 1 -0.707 -0.293 l -2.5 -2.5 a 1 1 0 0 1 0 -1.414 l 2.5 -2.5 a 1 1 0 0 1 1.414 1.414 L 34.914 30.5 l 1.793 1.793 A 1 1 0 0 1 36 34 Z" stroke-linecap="round"/>
</g>
		<g transform="matrix(1 0 0 1 13.25 -1.4938)" id="_10">
<path style="stroke: none; stroke-width: 1; stroke-dasharray: none; stroke-linecap: butt; stroke-dashoffset: 0; stroke-linejoin: miter; stroke-miterlimit: 4; is-custom-font: none; font-file-url: none; fill: rgb(0,109,240); fill-rule: nonzero; opacity: 1;" transform=" translate(-45.25, -30.5061)" d="M 44 34 a 1 1 0 0 1 -0.707 -1.707 L 45.086 30.5 l -1.793 -1.793 a 1 1 0 0 1 1.414 -1.414 l 2.5 2.5 a 1 1 0 0 1 0 1.414 l -2.5 2.5 A 1 1 0 0 1 44 34 Z" stroke-linecap="round"/>
</g>
		<g transform="matrix(1 0 0 1 8.0001 -1.5003)" id="_10">
<path style="stroke: none; stroke-width: 1; stroke-dasharray: none; stroke-linecap: butt; stroke-dashoffset: 0; stroke-linejoin: miter; stroke-miterlimit: 4; is-custom-font: none; font-file-url: none; fill: rgb(0,109,240); fill-rule: nonzero; opacity: 1;" transform=" translate(-40.0001, -30.4997)" d="M 39 34 a 1 1 0 0 1 -0.929 -1.371 l 2 -5 a 1 1 0 1 1 1.858 0.742 l -2 5 A 1 1 0 0 1 39 34 Z" stroke-linecap="round"/>
</g>
		<g transform="matrix(1 0 0 1 -21 -9.5)" id="_10">
<path style="stroke: none; stroke-width: 1; stroke-dasharray: none; stroke-linecap: butt; stroke-dashoffset: 0; stroke-linejoin: miter; stroke-miterlimit: 4; is-custom-font: none; font-file-url: none; fill: rgb(0,109,240); fill-rule: nonzero; opacity: 1;" transform=" translate(-11, -22.5)" d="M 12.5 23.5 h -3 a 1 1 0 0 1 0 -2 h 3 a 1 1 0 0 1 0 2 Z" stroke-linecap="round"/>
</g>
		<g transform="matrix(1 0 0 1 -18 -6.5)" id="_10">
<path style="stroke: none; stroke-width: 1; stroke-dasharray: none; stroke-linecap: butt; stroke-dashoffset: 0; stroke-linejoin: miter; stroke-miterlimit: 4; is-custom-font: none; font-file-url: none; fill: rgb(0,109,240); fill-rule: nonzero; opacity: 1;" transform=" translate(-14, -25.5)" d="M 18.5 26.5 h -9 a 1 1 0 0 1 0 -2 h 9 a 1 1 0 0 1 0 2 Z" stroke-linecap="round"/>
</g>
		<g transform="matrix(1 0 0 1 -19.5 -1.5)" id="_10">
<path style="stroke: none; stroke-width: 1; stroke-dasharray: none; stroke-linecap: butt; stroke-dashoffset: 0; stroke-linejoin: miter; stroke-miterlimit: 4; is-custom-font: none; font-file-url: none; fill: rgb(0,109,240); fill-rule: nonzero; opacity: 1;" transform=" translate(-12.5, -30.5)" d="M 15.5 31.5 h -6 a 1 1 0 0 1 0 -2 h 6 a 1 1 0 0 1 0 2 Z" stroke-linecap="round"/>
</g>
		<g transform="matrix(1 0 0 1 -21 6.5)" id="_10">
<path style="stroke: none; stroke-width: 1; stroke-dasharray: none; stroke-linecap: butt; stroke-dashoffset: 0; stroke-linejoin: miter; stroke-miterlimit: 4; is-custom-font: none; font-file-url: none; fill: rgb(0,109,240); fill-rule: nonzero; opacity: 1;" transform=" translate(-11, -38.5)" d="M 12.5 39.5 h -3 a 1 1 0 0 1 0 -2 h 3 a 1 1 0 0 1 0 2 Z" stroke-linecap="round"/>
</g>
		<g transform="matrix(1 0 0 1 -21 1.5)" id="_10">
<path style="stroke: none; stroke-width: 1; stroke-dasharray: none; stroke-linecap: butt; stroke-dashoffset: 0; stroke-linejoin: miter; stroke-miterlimit: 4; is-custom-font: none; font-file-url: none; fill: rgb(0,109,240); fill-rule: nonzero; opacity: 1;" transform=" translate(-11, -33.5)" d="M 12.5 34.5 h -3 a 1 1 0 0 1 0 -2 h 3 a 1 1 0 0 1 0 2 Z" stroke-linecap="round"/>
</g>
		<g transform="matrix(1 0 0 1 -15 1.5)" id="_10">
<path style="stroke: none; stroke-width: 1; stroke-dasharray: none; stroke-linecap: butt; stroke-dashoffset: 0; stroke-linejoin: miter; stroke-miterlimit: 4; is-custom-font: none; font-file-url: none; fill: rgb(0,109,240); fill-rule: nonzero; opacity: 1;" transform=" translate(-17, -33.5)" d="M 18.5 34.5 h -3 a 1 1 0 0 1 0 -2 h 3 a 1 1 0 0 1 0 2 Z" stroke-linecap="round"/>
</g>
</g>
</g>
<g transform="matrix(0.3617 0 0 0.3617 336.5952 336.5952)" id="56677">
<g style="" vector-effect="non-scaling-stroke">
		<g transform="matrix(3.7795 0 0 3.7795 -0.0019 -0.0019)" id="path850">
<circle style="stroke: none; stroke-width: 1.0583; stroke-dasharray: none; stroke-linecap: round; stroke-dashoffset: 0; stroke-linejoin: round; stroke-miterlimit: 4; is-custom-font: none; font-file-url: none; fill: rgb(51,51,51); fill-rule: nonzero; opacity: 1;" cx="0" cy="0" r="67.20417"/>
</g>
		<g transform="matrix(3.7795 0 0 3.7795 -0.0011 -0.0013)" id="path922">
<path style="stroke: none; stroke-width: 0.2646; stroke-dasharray: none; stroke-linecap: butt; stroke-dashoffset: 0; stroke-linejoin: miter; stroke-miterlimit: 4; is-custom-font: none; font-file-url: none; fill: rgb(255,255,255); fill-rule: nonzero; opacity: 1;" transform=" translate(-67.7333, -67.7333)" d="m 82.64465 83.282145 c 0 0 42.6777 -2.601602 21.89682 -47.30127 c 1.82905 -5.13511 1.31092 -12.463218 -0.57881 -16.631008 c -3.994446 0.301323 -5.538026 -0.754076 -17.219871 6.507793 c -6.523064 -1.365018 -14.470117 -3.925284 -31.328389 0 c -2.666926 -1.815778 -10.323368 -6.852688 -16.858276 -6.363172 c -1.484534 3.769566 -2.784908 12.112925 -0.88561 16.486387 c -1.133386 1.413342 -21.977737 38.711431 22.157198 47.30127 c -2.760035 3.288653 -3.145856 4.496385 -4.275426 8.589842 c -2.487302 0.87859 -11.214784 3.24268 -15.091487 -1.699614 c -3.876706 -4.942314 -6.937115 -12.158961 -15.240445 -9.256047 c 0.367326 2.163881 2.015078 2.260746 4.556751 4.349561 c 2.54167 2.088811 3.786622 4.744662 4.776075 7.44041 c 0.989461 2.69576 5.332303 10.379423 20.922126 7.734073 c -0.106581 3.6292 0.553692 13.92317 0.553692 13.92317 c 0 0 6.684867 1.75326 15.16901 1.75326 c 8.484143 0 15.169011 -1.75326 15.169011 -1.75326 c 0 0 1.218125 -5.92767 -0.05321 -22.491553 c -0.277065 -3.609938 -1.818378 -6.298497 -3.669194 -8.589842 z" stroke-linecap="round"/>
</g>
</g>
</g>
</svg>